<?xml version="1.0" encoding="iso-8859-1"?>
<!-- Generator: Adobe Illustrator 19.0.0, SVG Export Plug-In . SVG Version: 6.00 Build 0)  -->
<svg version="1.1" id="Layer_1" xmlns="http://www.w3.org/2000/svg" xmlns:xlink="http://www.w3.org/1999/xlink" x="0px" y="0px"
	 viewBox="0 0 474.48 474.48" style="enable-background:new 0 0 474.48 474.48;" xml:space="preserve">
<path d="M363.365,86.816c-15.829-12.918-35.53-18.431-54.583-23.762c-35.134-9.831-60.52-16.934-60.52-63.055h-30v346.097
	c-14.274-10.374-32.573-16.616-52.5-16.616c-45.491,0-82.5,32.523-82.5,72.5s37.009,72.5,82.5,72.5s82.5-32.523,82.5-72.5V282.393
	c15.443,11.721,34.235,16.979,52.436,22.071c35.134,9.831,60.52,16.934,60.52,63.055h30V155
	C391.218,124.415,382.107,102.111,363.365,86.816z M248.263,69.874c15.443,11.721,34.235,16.979,52.436,22.071
	c35.134,9.831,60.52,16.934,60.52,63.055v0.15c-15.444-11.726-34.232-17.002-52.436-22.095c-35.134-9.831-60.52-16.934-60.52-63.055
	V69.874z M361.218,297.645c-15.443-11.721-34.235-16.979-52.436-22.071c-35.134-9.831-60.52-16.934-60.52-63.055v-2.669
	c15.444,11.726,34.232,17.002,52.436,22.095c35.134,9.831,60.52,16.934,60.52,63.055V297.645z M361.218,225.15
	c-15.444-11.726-34.232-17.002-52.436-22.095c-35.134-9.831-60.52-16.934-60.52-63.055v-0.15
	c15.444,11.726,34.232,17.002,52.436,22.095c35.134,9.831,60.52,16.934,60.52,63.055V225.15z"/>
<g>
</g>
<g>
</g>
<g>
</g>
<g>
</g>
<g>
</g>
<g>
</g>
<g>
</g>
<g>
</g>
<g>
</g>
<g>
</g>
<g>
</g>
<g>
</g>
<g>
</g>
<g>
</g>
<g>
</g>
</svg>
