<?xml version="1.0" encoding="iso-8859-1"?>
<!-- Generator: Adobe Illustrator 19.0.0, SVG Export Plug-In . SVG Version: 6.00 Build 0)  -->
<svg version="1.1" id="Layer_1" xmlns="http://www.w3.org/2000/svg" xmlns:xlink="http://www.w3.org/1999/xlink" x="0px" y="0px"
	 viewBox="0 0 417.192 417.192" style="enable-background:new 0 0 417.192 417.192;" xml:space="preserve">
<g>
	<path d="M208.596,33.596C129.799,33.596,55.718,64.282,0,120l21.213,21.213c50.052-50.052,116.599-77.617,187.383-77.617
		s137.331,27.565,187.383,77.617L417.192,120C361.475,64.282,287.394,33.596,208.596,33.596z"/>
	<path d="M56.568,176.568l21.213,21.213c34.942-34.942,81.399-54.185,130.815-54.185s95.873,19.243,130.815,54.185l21.213-21.213
		c-40.608-40.608-94.599-62.972-152.028-62.972S97.176,135.96,56.568,176.568z"/>
	<path d="M113.137,233.137l21.213,21.213c40.939-40.938,107.554-40.938,148.493,0l21.213-21.213
		C251.419,180.5,165.773,180.5,113.137,233.137z"/>
	<path d="M208.596,273.596c-30.327,0-55,24.673-55,55s24.673,55,55,55s55-24.673,55-55S238.923,273.596,208.596,273.596z"/>
</g>
<g>
</g>
<g>
</g>
<g>
</g>
<g>
</g>
<g>
</g>
<g>
</g>
<g>
</g>
<g>
</g>
<g>
</g>
<g>
</g>
<g>
</g>
<g>
</g>
<g>
</g>
<g>
</g>
<g>
</g>
</svg>
